<?xml version="1.0" encoding="UTF-8" standalone="no"?>
<svg
   version="1.2"
   viewBox="0 0 2000 2000"
   width="2000"
   height="2000"
   id="svg1"
   sodipodi:docname="visage_seiji.svg"
   inkscape:version="1.3.2 (091e20ef0f, 2023-11-25, custom)"
   inkscape:export-filename="visage_seiji.png"
   inkscape:export-xdpi="96"
   inkscape:export-ydpi="96"
   xmlns:inkscape="http://www.inkscape.org/namespaces/inkscape"
   xmlns:sodipodi="http://sodipodi.sourceforge.net/DTD/sodipodi-0.dtd"
   xmlns="http://www.w3.org/2000/svg"
   xmlns:svg="http://www.w3.org/2000/svg">
  <defs
     id="defs1" />
  <sodipodi:namedview
     id="namedview1"
     pagecolor="#ffffff"
     bordercolor="#000000"
     borderopacity="0.25"
     inkscape:showpageshadow="2"
     inkscape:pageopacity="0.0"
     inkscape:pagecheckerboard="0"
     inkscape:deskcolor="#d1d1d1"
     inkscape:zoom="0.29627774"
     inkscape:cx="607.53805"
     inkscape:cy="1208.3257"
     inkscape:window-width="1920"
     inkscape:window-height="1042"
     inkscape:window-x="0"
     inkscape:window-y="38"
     inkscape:window-maximized="1"
     inkscape:current-layer="svg1"
     inkscape:export-bgcolor="#ffffffff" />
  <title
     id="title1">visage Seiji</title>
  <style
     id="style1">
		.s0 { fill: #d78e66 } 
		.s1 { fill: #1e232e;stroke: #000000;stroke-miterlimit:100;stroke-width: .5 } 
		.s2 { opacity: .2;fill: #713b33;stroke: #000000;stroke-miterlimit:100;stroke-width: .5 } 
		.s3 { fill: #873d2a;stroke: #000000;stroke-miterlimit:100;stroke-width: .5 } 
		.s4 { opacity: .3;fill: #713b33;stroke: #000000;stroke-miterlimit:100;stroke-width: .5 } 
		.s5 { fill: #13151a;stroke: #000000;stroke-miterlimit:100;stroke-width: .5 } 
		.s6 { fill: #6f391c;stroke: #000000;stroke-miterlimit:100;stroke-width: .5 } 
		.s7 { fill: #6d4c20;stroke: #000000;stroke-miterlimit:100;stroke-width: .5 } 
		.s8 { fill: #ffcbaf;stroke: #000000;stroke-miterlimit:100;stroke-width: .5 } 
		.s9 { fill: #000000;stroke: #000000;stroke-miterlimit:100;stroke-width: .5 } 
		.s10 { fill: none;stroke: #000000;stroke-miterlimit:100;stroke-width: .5 } 
		.s11 { fill: #8b4e2d;stroke: #000000;stroke-miterlimit:100;stroke-width: .5 } 
		.s12 { fill: #834828;stroke: #000000;stroke-miterlimit:100;stroke-width: .5 } 
		.s13 { fill: #31220e;stroke: #000000;stroke-miterlimit:100;stroke-width: .5 } 
		.s14 { fill: #c7664c;stroke: #000000;stroke-miterlimit:100;stroke-width: .5 } 
		.s15 { fill: #412212;stroke: #000000;stroke-miterlimit:100;stroke-width: .5 } 
	</style>
  <path
     id="Peau"
     fill-rule="evenodd"
     class="s0"
     d="m624 1119c-5.4-1-10.5-3-15-6q-3.3-2.2-6-5c-0.8-18.1-1.1-35.8-1-54 0.1-14.5 0.4-28.6 1-43-28.4-55.3-51.8-112.7-70-172q-18.8-61.1-30-124c8.8-29.1 15.2-58.8 19-89 2.1-16.9 3.5-33.9 4-51 11.2-30.6 17.3-60.8 18-91 0.6-26.7-2.5-50.3 8-81 7.3-21.3 19-40.3 34-57q28.5-39 57-78c23.6-2.1 41.9-7.2 45-18 2.7-9.4-8.2-17.5-5-27 3.5-10.3 21.1-14.4 33-15 28.9-1.4 45.6 20 74 16 9.5-1.3 23.7-5.9 25-14 0.5-3.2-1-6.6-4-10-13.7-17.9-29.4-34-47-48q-12.9-10.3-27-19c21.3-13.6 45.8-21.3 71-22 32.6-0.9 64.3 9.9 90 30 506.3-24.4 491 99 491 99 26.8-3.3 53.9 3.1 75 20 11 8.8 19.8 20.1 26 33 20.4 3.2 40.1 8.9 59 17q13.4 5.7 26 13c20.9 85.7 47 74 47 74 8.1 13.2 3 39 3 39 0.9 22.2 4.9 44 12 65q5 14.9 12 29c-4.6 11.3-11 21.7-19 31-7.8 9-16.9 16.8-27 23 4.1 14.8 6.4 29.9 6.7 45.1q0.1 9.5-0.7 18.9c-1.8 19.1-11.5 37-27.6 47.7-10.4 7-22.7 10.4-35.4 10.3 1.5 13.8 2.7 27.3 3.5 41.2 1.1 18 1.6 35.7 1.5 53.8 2.8 12.4 7.9 48.9 6 52-1.9 3.1-7 3-7 3-2.5 12.8-6.5 25.2-12 37-4.4 9.5-9.8 18.5-16 27-5.8 6.6-11.6 13.2-17.3 19.9q-4.4 5-8.7 10.1-1.5 7-3 14c6.6 58.2-23.1 146-54.5 219.2-19.4 45-39.4 89.6-64.5 131.8-8 9.4-16.3 18.3-25 27-9.6 9.5-18.9 17.5-28.4 27.1q-19.5 19.7-35.6 42.9c-4.2 11.5-9.5 22.6-16 33q-3 4.8-6.3 9.4-5 7-10.7 13.6 5.6 6.5 10 14c7.1 12.1 15.3 37.8 13 71-1.3 18.2-6 38.9-16 63-5.3 12.9-15.9 31.6-26 49-9.1 15.6-18.7 31.4-27 42-12.2 15.6-25.5 28.4-37 39-17.5 16.1-28.1 31.4-46 47-85.3 74.4-194.7 87.9-269 81-22.1-2.1-74.3-18.4-118-31-34.9-10.1-68.5-20.7-105-49-20.6-16-57.3-57.2-84-110-11.3-22.4-25.2-62.3-36-101-19.5-69.5-23.8-118.3-10-152 9.7-23.8 25.5-44.6 46-62 50.9-52.4 77-250 77-250z"
     style="fill:#da936c;fill-opacity:1;stroke-width:2;stroke-dasharray:none" />
  <path
     id="Vêtement"
     class="s1"
     d="m-1 1583c19-12.1 66.3-32.3 106-49 39-16.4 73.8-26.8 112-45 36.3-17.3 63.9-34 102-47 31.4-10.7 65.9-21 82-22 9.5-0.6 30.1-1.4 49-13 10.9-6.6 15.4-13.9 26-21 12.9-8.6 27.7-14.4 43-17 9.6-1.6 19.3-1.9 29-1q-14.4 14.7-26 31c-5.2 7.4-9.8 14.6-13 21-6.5 13-10.9 26.6-13 40-2.9 18.4-0.9 35.9 1 46 4.9 26.5 11.6 51.4 18 77 6.6 26.1 9 47 19 72 5.8 14.4 13.5 29.8 23 46 13 22.1 29 43.9 49 66 16.9 18.8 28.3 31.7 46 42 19.9 11.7 37.7 15 55 19 37.3 8.7 57.8 24.9 95 34 22.3 5.5 45.7 9.1 70 11 27.6 2.1 53.6 1.7 73-1 18.8-2.6 46.1-10.1 73-20 22.1-8.1 43.2-17.4 58-26 18.2-10.6 45.9-32.4 71-57 11.6-11.3 27.7-29.4 42-46 14.7-17.1 27.3-33.3 37-49 8.7-14.2 13.1-26.8 21.7-41.1 8.6-14.4 15-23.7 20.3-39.9 4-12.3 6.4-25.1 7-38 0.4-8.6-1.1-23.9-3.3-38.1-2-12.8-4.3-22.2-8.7-31.9q-3.8-8.4-9-16 4-4 8-8 5.1 4.6 11 8c6.6 3.8 15.5 6.4 18 7 5.1 1.2 19 5.3 29 8 12.8 3.5 23.5 6.9 34 12 7.1 3.4 13.2 7.1 19 12 6.5 5.5 10.2 10.7 15.6 17q8.9 10.4 20.4 19c26.2 6.6 51.2 15.6 75 27 17.7 8.5 32.2 17.6 50 26 19.1 9 37.9 15.5 59 23 35 12.5 71.6 26.7 98 39 12.5 5.8 29 14.2 44 22 55.8 29 107.9 59.4 141 87 28.1 23.5 50.5 47.6 69 78 6.7 11 17.3 34.6 26 55 10.1 23.9 18.9 47 26 69 3.7 11.3 8.6 26 9 30 13.3 136.2-1027.5 337.1-1786 206-226.7-39.2-372.5-100.5-413-217-46.8-134.7 55.6-319.2 192-406z"
     style="stroke-width:2;stroke-dasharray:none" />
  <g
     id="Ombres"
     style="display:inline;stroke-width:2;stroke-dasharray:none">
    <g
       id="Visage"
       style="stroke-width:2;stroke-dasharray:none">
      <path
         id="Forme 27"
         class="s2"
         d="m 833,1321 c -3.6,2.6 5.2,22.6 17,40 6.1,9 16.2,20.2 28,31 11.4,10.5 20.9,18.2 31,30 10.5,12.3 15.7,21.9 16.7,30.9 2.7,23.4 -14.7,45.1 -29.7,56.1 -15.1,11 -26.2,9.6 -41,21 -5.3,4.1 -15.7,16.6 -24,30 -9.6,15.5 -13.5,26.5 -27,35 -8.3,5.2 -17.6,6.3 -24,9 -18.1,7.6 -31.7,22.3 -40,36 -11.6,19.3 -13.3,36 -11.4,43.4 4.8,18.3 21.4,20.3 28.4,37.6 7.3,18.2 -2.1,37.7 0,59 1,10.3 3.9,28.9 11,30 9.2,1.4 20.7,-33.3 42,-52 13.3,-11.7 27.4,-15.1 45,-24 34.7,-17.5 53.2,-34.5 67,-27 12.3,6.7 13.5,34 23,51 7.7,13.8 17,22.1 23,25 7.6,3.6 29.9,4.4 57,-7 28.6,-12.1 47.8,-30.2 54,-40 11.3,-17.8 6.7,-29.2 18,-47 14.7,-23.2 35.5,-26.3 53,-46 12.3,-13.9 13.4,-25.7 24,-41 12.6,-18.1 23.2,-26.9 28,-46 5.6,-22.1 3.8,-38.1 0,-45 -5,-9.1 -20.8,-19.7 -48,-26 -12.2,-2.8 -26.8,-4.8 -33,-5 -28.9,-1 -55.2,-1.6 -76,-7 -13.4,-3.5 -27.5,-9 -43,-17 -10.7,-5.5 -21.4,-12.2 -32,-20 q -12.2,-8.9 -24,-20 c -8.4,-7.9 -17.4,-18.2 -23,-24 -11.7,-12.1 -23.9,-23.4 -34,-31 -7.4,-5.6 -14.5,-9.5 -22,-15 -6.6,-4.7 -31.1,-27.1 -34,-25 z"
         style="stroke-width:2;stroke-dasharray:none" />
      <path
         id="Forme 30"
         class="s2"
         d="m 706,1095 c -5.2,-1.8 -16.9,18.6 -22,28 -11.7,21.9 -21.6,52.5 -23,59 -10.5,47.8 -20.5,87.9 -14,111 11.4,40.7 38.6,45.7 48,89 2.2,10.3 -1.1,41.3 12,62 15,23.7 41,31.5 55,36 32.3,10.4 54.5,24.2 87,34 62.5,18.8 108,33.6 152,28 20.7,-2.6 86.9,-14.3 92,-45 0.9,-5.7 -0.3,-11.4 -3,-17 -17.1,-1 -33.8,-4 -50,-9 -33.8,-10.3 -66.2,-28.1 -89,-53 -2.7,-2.9 -11.4,-16.2 -20,-22 -10.5,-7.1 -15.8,-14.5 -26,-22 -10.8,-7.9 -27.6,-21 -39,-30 -25.1,-19.8 -50.1,-42.4 -62,-57 -9.5,-11.7 -22.7,-41 -44,-56 -16.1,-11.4 -31.9,-15.9 -41,-34 -4.5,-9 -4.6,-17.6 -6,-30 -1.3,-11.6 -4.2,-20.3 -5,-32 -0.5,-8.1 2.2,-38.5 -2,-40 z"
         style="stroke-width:2;stroke-dasharray:none" />
    </g>
    <g
       id="Oreille"
       style="stroke-width:2;stroke-dasharray:none">
      <path
         id="Forme 25"
         class="s3"
         d="m 676,725 c 2.1,-2.1 -0.3,-8.2 -4,-15 -3.5,-6.5 -7.2,-12 -11,-17 -3.4,-4.5 -6.4,-8.1 -8,-12 -1.3,-3.4 -1.8,-5.9 -4,-9 -2.7,-3.7 -6.6,-6.6 -11,-8 -3.9,-1.3 -7.9,-1.3 -14,0 -4.7,1 -9.2,2.9 -13,4 -3.6,1 -6.5,1.5 -10,3 -2.7,1.1 -6.4,3.4 -10,6 -4.3,3.1 -8.3,6.8 -10,9 -2.1,2.8 -2.9,5.2 -5,8 -1.2,1.6 -4.3,4.8 -6,8 -1.2,2.2 -2.2,5.4 -3,9 -1.1,4.8 -1.9,9.6 -2,13 -0.2,4 0,7.8 0.4,10.4 0.7,3.6 1.6,6 1.6,9.6 0,3.5 -0.8,7.2 -2.4,10.8 -2.1,4.6 -4.9,6.3 -6.6,11.2 -1.1,3.3 -0.8,6.1 -1,10 -0.2,4.4 -1.2,7.6 -1,12 0.4,8.1 3,15.2 4,15 0.8,-0.1 0.5,-5.6 1,-15 0.3,-5.1 0.6,-9.1 2,-14 1.5,-5.4 3.5,-8.9 6,-14 2.2,-4.5 3.6,-8.6 6,-13 2.7,-5.1 6.6,-11.1 11,-17 2.7,-3.7 6.4,-7.4 9,-12 2.9,-5.2 4.2,-9.4 8,-14 3.6,-4.4 7,-6.8 10,-8 3.5,-1.4 7.4,-1.5 13,-1 7.4,0.7 12.8,2.3 14,4 3,4.1 0,9.6 2,15 1.9,5.4 6.9,9.9 12,11 3.9,0.9 6.6,-0.9 10,-1 4.4,-0.1 10.2,2.8 12,1 z"
         style="stroke-width:2;stroke-dasharray:none" />
      <path
         id="Forme 26"
         class="s3"
         d="m 677,755 c 3.8,1.8 3.9,10.3 3,18 -0.8,6.9 -3.1,14.2 -4,19 -1.1,5.9 -2.4,16.5 1,18 1.9,0.8 4,-1.7 7,-1 1.8,0.4 3.2,1.9 4,3 2.4,3.4 1.3,7.8 0,13 -1.3,5.4 -2.1,9.8 -4,15 -2.2,6.2 -4.1,9.7 -7,11 -1.8,0.8 -6.9,0.8 -13,-2 -3.5,-1.6 -5.5,-3.5 -9,-5 -4.3,-1.9 -7.6,-1.6 -12,-3 -3.9,-1.2 -6.1,-3 -10,-4 -5.5,-1.4 -8.7,-0.1 -14,-2 -3.7,-1.3 -9.8,-5.7 -15,-14 -3.4,-5.5 -5.5,-11.7 -6,-18 -0.7,-8.6 1.2,-18.8 7.7,-27.3 4.4,-5.5 10.6,-10 18.3,-12.7 5.1,-1.8 13.7,-2 23,-2 8,0 13.8,0.2 19,-2 5.2,-2.2 8.2,-5.3 11,-4 z"
         style="stroke-width:2;stroke-dasharray:none" />
      <path
         id="Forme 29"
         class="s4"
         d="m 683,984 c -4.9,5.5 4.6,18.3 16,42 3.1,6.4 6.3,13.3 10,13 5.4,-0.4 8.2,-15.9 9,-21 1.3,-8.9 -0.3,-16.1 0,-24 0.3,-8.5 1.7,-13.7 0,-22 q -1.3,-6.3 -4,-12 c -0.4,6.4 -2.7,12.1 -7,16 -2.3,2 -5.9,3.7 -11,5 -3.1,0.8 -11.1,0.8 -13,3 z"
         style="stroke-width:2;stroke-dasharray:none" />
    </g>
    <g
       id="g1"
       style="display:inline;stroke-width:2;stroke-dasharray:none">
      <path
         id="Forme 31"
         class="s5"
         d="m 492,1492 c -4.3,-2.2 -11.8,3.1 -16,8 -11.9,13.6 -7.9,35.2 -3.4,55.5 5.5,24.4 14.4,43.5 22.4,65.5 8.6,23.9 8,41.9 16,66 10.1,30.7 23,56 38,77 22.2,31.1 43.2,45.8 72,68 40,30.8 64.8,61 107,82 28.5,14.2 69.2,24.8 115,34 28.8,5.8 78.2,12.6 119,19 53.4,8.3 94.8,14.6 141,-6 12.1,-5.4 38,-23.8 60,-44 24.2,-22.1 44.8,-44.4 59,-64 16.7,-23.1 40.5,-70.2 57,-121 5.6,-17.4 13.9,-54.6 21,-84 10.7,-44.2 17.5,-75.7 10,-117 -3.5,-19.1 -9.6,-37.5 -18,-55 q -13.5,-6 -27,-12 0,14.9 3,29 c 2.5,11.9 6.5,20.4 8.7,32.3 2.2,12.5 2.5,23.6 1.3,33.7 -1.7,14 -7.1,27.5 -10,34 -6.9,15.2 -11.6,29 -19,44 -10.5,21.3 -23.3,46.4 -31,58 -10.8,16.2 -24.4,32.7 -41,50 -16.4,17 -34.4,30.7 -50,45 -15.3,14.1 -26.4,26.1 -43,37 -18,11.9 -40.2,21.3 -68,30 -36.2,11.4 -75.1,19.8 -96,21 -16.4,0.9 -47.3,-1.7 -75,-5 -28,-3.4 -53.1,-8.2 -73,-15 -16.3,-5.6 -27.9,-12.9 -44,-19 -20.7,-7.8 -49.4,-11 -75,-26 -10.2,-6 -32.4,-27 -51,-48 -16.7,-18.9 -31.8,-38.6 -41,-54 -8.5,-14.2 -16.1,-29.7 -23,-47 -8.3,-20.8 -12.4,-39.7 -19,-61 -3.2,-10.3 -6.8,-21.3 -9,-30 -3.7,-14.5 -6.8,-29.6 -9,-44 -1.4,-9.1 -4.4,-14.8 -5,-24 -0.3,-4.9 -0.4,-11.2 -4,-13 z"
         style="stroke-width:2;stroke-dasharray:none" />
      <path
         id="Forme 32"
         class="s5"
         d="m 1705,1669 c -4.1,5.2 18.6,30 33,45 36.3,37.8 71.2,60.1 112,93 15.2,12.3 29.9,25.6 45,43 9.5,11 18.9,23.4 28,37 7,10.4 13.4,21 18,30 3.5,6.8 8.7,18.8 13,29 4.4,10.3 9.6,17.6 14,28 2,4.6 5.9,14.4 16,21 5.1,3.3 10.8,5.3 17,6 q -1.5,-11.5 -3,-23 -2,-11.5 -4,-23 c -4,-13.9 -8.7,-27.5 -14,-41 -4.4,-11.2 -10,-23.6 -16,-36 -7.9,-16.4 -17.1,-33.7 -24,-44 -4.3,-6.4 -8.7,-12.4 -13,-17.6 -12,-14.7 -25.5,-26.2 -36,-34.4 -10.7,-8.3 -24.9,-19.5 -31.5,-24.3 -13.1,-9.4 -30.8,-22.5 -38.5,-27.7 -19.5,-13.3 -43.3,-27.5 -68,-41 -28.8,-15.7 -45,-23.7 -48,-20 z"
         style="stroke-width:2;stroke-dasharray:none" />
      <path
         id="Forme 33"
         class="s5"
         d="m 1,1583 c -2.8,4.3 -7.9,11.7 -5,17 2.2,4.1 7.7,4.9 10,5 8.1,0.4 14.6,-5.8 16,-7 3.7,-3.4 63.4,-30.7 88,-42 23.6,-10.8 53,-22 83,-32 20.4,-6.8 52.8,-15.6 80,-26 21.7,-8.3 38.9,-17.7 61,-25 30.7,-10.1 66.5,-21 83,-23 4.4,-0.5 25.4,-4.2 41,-16 23.6,-17.8 35.1,-48 30,-52 -3.9,-3.1 -18.4,8.7 -31,20 -4.6,3.6 -9.6,6.7 -15,9 -12.6,5.4 -22.1,4.7 -35,6 -6,0.6 -14.1,2.2 -22,4 -9.7,2.3 -20.7,6 -32,10 -8.6,3.1 -20.4,7.1 -25,9 -5.3,2.2 -10.3,4.2 -16,6 -5.1,1.6 -9.8,2.7 -15,4 -19,4.6 -33.8,14.6 -44,21 -9.6,6 -34.2,17.1 -54,26 -16.2,7.3 -36.5,15.5 -56,23 -2.7,1 -44.4,16 -65,25 -18.1,7.9 -30.5,18.4 -46,22 -8.6,2 -23.4,4.3 -31,16 z"
         style="stroke-width:2;stroke-dasharray:none" />
    </g>
  </g>
  <g
     id="Yeux"
     style="display:inline;stroke-width:2;stroke-dasharray:none">
    <g
       id="Gauche"
       style="stroke-width:2;stroke-dasharray:none">
      <path
         id="Forme 4"
         class="s6"
         d="m 1273,861 c 3.4,-2.6 -6.6,-25.4 -23,-43 -8.8,-9.5 -28.4,-22.8 -54,-32 -17.7,-6.4 -40.1,-11.4 -66,-14 -17.9,-1.8 -32.9,-1.8 -47,0 q -12.7,1.6 -25,5 c 5.7,2 11.3,4 17,6 7.3,2.6 15.6,5.7 21,8 q 14.4,6.1 30,15 c 9.8,5.6 20.9,14.3 34,20 14.6,6.3 30.9,10 46,11 3.6,0.2 16.5,1.5 26,4 4.5,1.2 8.6,2.5 12,4 7.2,3.1 12.2,6.8 19,11 5.6,3.5 9.1,5.7 10,5 z"
         style="stroke-width:2;stroke-dasharray:none" />
      <path
         id="Forme 16"
         class="s7"
         d="m 1131,791 c -0.4,1 0.3,4.5 1,8 1.3,6.2 2.6,10.7 5,14 1.5,2 6.4,5.9 12,9 4.6,2.5 9.6,4.6 12,5 2.8,0.5 8.9,0.2 15,-1 7.2,-1.5 12.9,-4 15,-6 3,-2.9 3.9,-6.2 6,-11 1.9,-4.4 4.3,-7.7 4,-10 -1.5,-10.7 -25.1,-15.1 -33,-16 -12.4,-1.5 -33.7,-1.2 -37,8 z"
         style="stroke-width:2;stroke-dasharray:none" />
      <path
         id="Forme 21"
         class="s8"
         d="m 1228,838 c 2.9,-3.2 -1.2,-11.8 -5,-18 -3.3,-5.4 -7.4,-8.1 -12,-13 -1.6,-1.7 -4.1,-4.4 -7,-4 -1.5,0.2 -3.5,1.7 -5.2,5.3 -2.1,4.1 -1.1,8.7 -3.8,11.7 -1.1,1.2 -5.1,2.3 -10.1,3 -1.2,0.1 -6.7,1.8 -10.9,4 -0.9,0.5 -2,1.1 -2,2 0,2.5 9.9,4.3 15,5 7.3,1.1 12.7,0.1 20,1 4.1,0.5 18.3,5.9 21,3 z"
         style="stroke-width:2;stroke-dasharray:none" />
      <path
         id="Forme 22"
         class="s9"
         d="m 1145,795 c -2.4,2.8 -2,7.7 0,11 1.1,1.8 3.8,3.9 8.5,5.3 3.5,1.1 7.5,1.6 9.5,1.7 7.2,0.5 12,1 17,-1 4.5,-1.8 6.4,-4 6.7,-5.6 0.4,-2.3 -0.9,-4.8 -3.7,-7.4 -3.4,-3.1 -7.2,-4 -14,-5 -3.9,-0.6 -9,-0.8 -14,-1 -4.9,-0.2 -8,-0.2 -10,2 z"
         style="stroke-width:2;stroke-dasharray:none" />
      <path
         id="Forme 2"
         class="s10"
         d="m 1276,826 c -16.7,-27.9 -41.9,-49.7 -72,-62 -32.5,-13.3 -68.6,-14.6 -102,-4"
         style="stroke-width:2;stroke-dasharray:none" />
    </g>
    <g
       id="Droit"
       style="stroke-width:2;stroke-dasharray:none">
      <path
         id="Forme 6"
         class="s6"
         d="m 1419,917 c -0.5,-1.3 -0.9,-5.3 1,-10 1.8,-4.4 4.5,-7.9 8,-10 5.6,-3.4 11.5,-2.5 16,-2 7.8,0.9 16.5,2.7 20,4 8.3,3 16.3,7 25,11 8.6,4 15,7 23,13 1.7,1.3 3.4,2.6 5,4 q -5.9,4.5 -11,10 c -2.3,2.5 -5,5.5 -6,7 -1.5,2.4 -2.8,5.1 -6,7 -1.7,1 -3.9,1.8 -7,2 -9.6,0.6 -20,-5.4 -21,-6 -6.6,-3.8 -13.9,-7.7 -19,-11 -2.6,-1.7 -6.3,-4.3 -9,-6 -4,-2.5 -7.9,-4.8 -12,-7 -3.1,-1 -5.8,-3.1 -7,-6 z"
         style="stroke-width:2;stroke-dasharray:none" />
      <path
         id="Forme 23"
         class="s8"
         d="m 1493,947 c 1.6,-4.5 1.4,-9.2 0,-15 -1.6,-6.4 -4.6,-12.3 -6,-14 -3.7,-4.4 -8.9,-5.7 -12,-8 -0.6,-0.5 -2,-1.5 -3,-1 -1.5,0.7 -1.1,3.9 -1.1,8.2 -0.1,4 -0.7,8 -1.3,9.3 -2.1,4.3 -6.6,8 -9.6,9.5 -0.4,0.2 -1.7,0.8 -2,2 -0.4,1.7 1.3,3.4 2,4 1.7,1.4 3.3,1.5 5,2 4,1.2 4.1,3.6 8,5 4.2,1.5 5.9,-0.5 10,1 2.8,1 4,2.5 6,2 1.4,-0.4 2.8,-1.8 4,-5 z"
         style="stroke-width:2;stroke-dasharray:none" />
      <path
         id="Forme 17"
         class="s7"
         d="m 1455,938 c 1.5,-0.4 5.5,-3.1 9,-7 4.6,-5.1 6.8,-10.9 7,-13 0.4,-3.6 -0.3,-8.2 -3,-12 -2.6,-3.6 -5.9,-5.1 -8,-6 -11.1,-4.8 -20,-6.5 -24,-5 -1.8,0.7 -6.1,3.6 -9.6,7.6 -5.4,6 -7,11 -6.4,13.4 1,4.1 5.5,5.7 10,8 5.4,2.8 17,15.9 25,14 z"
         style="stroke-width:2;stroke-dasharray:none" />
      <path
         id="Forme 24"
         class="s9"
         d="m 1461,920 c 0.6,-1.5 0.4,-4.8 -2,-9 -2.1,-3.8 -5.7,-6.7 -10,-8 -4.1,-1.2 -7.3,-0.7 -9,0 -3.8,1.6 -6.4,5.2 -7,9 -0.9,5.4 2.2,9.4 4,11 7,6.4 21.5,3.6 24,-3 z"
         style="stroke-width:2;stroke-dasharray:none" />
      <path
         id="Forme 3"
         class="s10"
         d="m 1447,889 q 5.9,-1.4 12,-2 c 7.2,-0.7 14.8,-0.4 23,1 4.5,0.8 11.5,2.8 18,5 9.4,3.2 14.5,5.8 18,11 2.9,4.3 4.1,9.4 4,15"
         style="stroke-width:2;stroke-dasharray:none" />
    </g>
  </g>
  <g
     id="Nez"
     style="stroke-width:2;stroke-dasharray:none">
    <path
       id="Forme 11"
       class="s11"
       d="m1278 1115c-1.5-4.7 13.8-14.6 28-19 8.3-2.6 14.9-2.8 20-2 3.2 0.5 11 3.5 18 8 6.3 4 9.1 7.4 9 10-0.1 2.2-1.7 4.3-4 6q-14.4 1.2-28 0c-4.7-0.4-8.3-1.2-13-1-1.4 0.1-13.3 1.8-21 1-5.5-0.6-8.6-1.7-9-3z"
       style="stroke-width:2;stroke-dasharray:none" />
    <path
       id="Forme 12"
       class="s12"
       d="m1369 1138c3-4.5 8.7-5 14-6 4.9-0.9 18.3-4.1 26-8 1.2-0.6 4.7-2.4 7-1 1.6 1 2.2 3.2 2 5-0.3 2.9-3 4.8-8 8-3.3 2.1-6.6 4.1-9 5-4.3 1.6-9.8 1.6-12 2-4.2 0.8-11.3 2.2-14 3-1.7 0.5-5.4 1.7-7 0-1.6-1.6-0.7-5.5 1-8z"
       style="stroke-width:2;stroke-dasharray:none" />
    <path
       id="Forme 13"
       class="s10"
       d="m1454 826c-11.2 9-20.6 19.8-28 32-9.8 16.2-14.1 30.2-15.6 42.1-1.4 11.1-0.6 19.8 0.6 28.9 2.2 16.6 5.2 35 8 46 3.9 15.4 8.4 30.4 13 42 3.9 9.8 9.3 23.8 11 40 1.2 11.7 0.7 23.8-2 36-3.1 14.1-9.5 26.5-13 31-4.1 5.2-12 12.3-23 18-9.6 5-20.1 8-31 9"
       style="stroke-width:2;stroke-dasharray:none" />
    <path
       id="Forme 10"
       class="s10"
       d="m1273 1130c-11.3-2.6-21.2-8.8-28-18-4-5.5-8.7-15.5-9-30-0.3-13.5 4.8-26 7-31 3.9-8.8 16.3-37.9 25-57"
       style="stroke-width:2;stroke-dasharray:none" />
  </g>
  <g
     id="Sourcils"
     style="stroke-width:2;stroke-dasharray:none">
    <path
       id="Forme 8"
       class="s13"
       d="m1365 781c7.5-3.2 10.2-15.7 9-25-1.1-8.8-5.6-15.2-10-20-10.8-11.9-28.5-20.9-31-22-20.1-8.8-31.4-20-51-30-13.5-6.9-25.6-11-39-18-15.2-8-25.7-14.6-42-20-11.2-3.7-24.2-6.2-39-8-16.1-1.9-28.9-0.8-45-3-16.3-2.2-26.5-4.9-43-3-9.6 1.1-19 3.5-28 7q33.8 14.4 68 24c21.5 6 49.5 13.7 64 18 8.5 2.5 17.4 6.2 26.6 9.4 7.1 2.4 18.6 6.9 29 13.9 4.6 3.2 7.9 6.4 12.4 9.7 10.7 7.8 19.8 10.4 30.5 18.2 7.3 5.3 12.8 11.6 19.2 17.3 9.5 8.4 17 14.2 26.3 18.5 7.9 3.7 13.9 3.7 22 7 10.1 4.2 15.5 8.4 21 6z"
       style="stroke-width:2;stroke-dasharray:none" />
    <path
       id="Forme 9"
       class="s13"
       d="m1465 837c-2.1-5.2 12.5-18.5 29-23 6-1.6 14-2.4 24-1 4.9 0.7 8.1 2.3 13 3 10.7 1.6 17.7 0 22 5 1.5 1.7 2 5.6 3 10 1.1 4.5 1.4 9.3 2 13 0.3 2 0.9 5.2-1 8-1.5 2.2-4.1 3.5-7 4-2.1-4.3-5.1-7.8-9-10-7-4-14.4-2.6-18-2-9.5 1.5-19.3 1.6-26 1-8.5-0.7-13.6-3.6-22-5-5.7-0.9-9.2-1-10-3z"
       style="stroke-width:2;stroke-dasharray:none" />
  </g>
  <g
     id="Bouche"
     inkscape:label="Bouche"
     style="stroke-width:2;stroke-dasharray:none">
    <path
       id="Forme 14"
       class="s14"
       d="m1121 1233c1.7-7.4 45-5.6 71-2 7.2 1 18.1 2.4 30 0 11.6-2.4 18.5-7.1 30-10q8.7-2.2 17-3c9.7-0.9 18.6-0.6 27 1 6.9 1.3 13.8 3.5 16 5 2.3 1.5 7.6 8.4 14 10 1.5 0.4 5.3 0.6 9 0 2.8-0.4 6.3-1.6 10-3 3.9-1.5 6.2-2.5 9-2 2.8 0.5 5.9 2.4 9 7 4.4 6.6 4.3 13.9 3.9 21.7-0.1 0.8-0.8 14.4-0.9 15.3-0.5 3.1-1.8 9.5 1 16 1.2 2.9 3.1 5.2 4 6 1.8 1.4 4.1 1.9 6 4 1.7 1.9 3.1 5.2 2 7-1.6 2.5-7.6 0.3-17 0-2.9-0.1-5.1 0.4-8 0-5-0.7-7.9-2.5-11-1-3.5 1.6-4 5.7-6 11-1.5 4-3.5 6.1-5 10-1.8 4.7-2.2 7.9-5 11-4.7 5.1-11.5 5.5-19 6-9.5 0.6-17.8 2.2-25 1-9.8-1.6-15.8-5.2-23-9-6.7-3.5-19.5-8.4-30-13-7.2-3.2-14.3-6.6-22-12-5.1-3.6-9-7.3-14-11-3.6-2.7-10.4-7.3-16-11-5.1-3.4-10-6.6-14-10-4.5-3.9-7.2-7.5-12-11-5.7-4.1-10.5-5.7-16-10-4.8-3.8-8.1-7.7-10-11-1.7-2.9-2.6-6.4-4-10-0.5-1.4-1.1-2.5-1-3z"
       style="fill:#d45e55;fill-opacity:1;stroke-width:2;stroke-dasharray:none" />
    <path
       id="Forme 15"
       class="s10"
       d="m1143 1253c20.1 7.6 39.4 11.1 58 10 6.1-0.4 18.6-0.9 28.7-0.6 6.8 0.2 12.6 0.7 19.3 2.6 7.8 2.2 14.1 5.8 22 9 4 1.6 7.7 3 12 4 4.9 1.2 8.9 1.4 14 2 7.8 0.9 12.9 3.5 20 3 6.9-0.5 11-2.5 16 0 3.2 1.6 6.6 7 10 15 0.7 1.7 1.4 3.3 2 5"
       style="stroke-width:2;stroke-dasharray:none" />
  </g>
  <g
     id="Cheveux"
     style="stroke-width:2;stroke-dasharray:none">
    <path
       id="Forme 18"
       class="s15"
       d="m801 894c6.1 0.8 16.7-36.6 28-80 8.8-33.8 13.9-60.7 28-82 5.6-8.5 15.5-27.4 24-42 4.6-7.9 11.3-19.7 8-32-0.5-1.9-4.7-8.8-4-14 1.3-9 12.6-16.3 31-22 12.8-4 24.3-4.3 36-6 14.3-2.1 27.2-9.5 44-17 31.3-13.9 54.1-19.7 68-38 11.5-15 17-33.6 18-51 0.5-8.2-2.9-29.3-10-49-6.3-17.4-13.6-31.5-21.2-42.5-8-11.5-17.8-22.2-28.8-31.5-18.8-15.8-35.5-23.1-39-41-1.6-8.2-0.4-18.3 4-20 4-1.5 8.9 4.5 15 10 13.6 12.3 24.6 11.7 39 23 11 8.7 17.8 18.8 28 30 13 14.3 25.5 25 35 29 19.1 8 35.2 5 50 4 14.1-1 44.8 3.3 73 9 11.1 2.2 20.7 4.6 32 6 18.3 2.3 32.8 1 51 4 16.7 2.7 32.6 7.5 47 14 19.5 8.8 34.1 22.1 49 31 15.7 9.4 29 13.4 44 24 16.7 11.8 28.8 26.8 45 44 12.9 13.7 24.2 24.3 31 37 6.4 11.9 13.8 38.7 15 69 1 26.4-1.7 45.1 8 50 5.6 2.9 14.9 0.2 29-10 7.5-5.5 12.8-12.6 20-21 6.1-7.2 10.6-12 13.1-18.9 3.2-9 2.1-17.1 1.2-29.6-0.5-6.9-0.1-12.6-1.2-19.3-0.7-4.1-6.4-21.8-4.1-23.2 1.7-1 6.1 2.1 9 6 3.8 5.1 2.7 10.5 7 15 1.7 1.8 6 5.3 11 4 2.8-0.8 5.9-3.2 6-6 0.1-3.4-4.5-5.1-9-10-5.5-6-7-11-7-15 0-3.8 1.3-8.2 5-13 4.6-6 9.8-6.7 14-11.5 2.6-2.9 6.3-12.1 6-24.5-0.3-11.3-3.7-21.2-6-28-1.2-3.7-3.9-17.4-6-27-4.2-19.5-10-46.3-10-52-0.1-10.2 1-20.8-6-31-8.7-12.7-20.7-11.1-29.8-23.1-6.3-8.5-6.9-22.1-9-40.5-1.5-13.5-2.9-21.3-9.2-26.4-9.9-8-24.1-1-37-5-13.5-4.2-17.4-16-32-17-6.5-0.4-11.1 1.3-15-2-4.7-4-4.3-17.4-5-20-1.8-6.9-5.6-14.5-12-19-8.6-6-17.6-4.1-30-4-18.7 0.1-33.8-5.3-39-9-7.9-5.7-11.5-13.3-18-24-6.3-10.3-14-20.6-18-24-14.7-12.2-30.7-12.6-49-15-16-2.1-27.5-6.8-43.5-9.1-3.7-0.6-31-2.8-47.5-6.9-12.6-3.1-32.2-10.8-50.4-19-21.8-9.7-34.1-16.9-51.1-14.9-11.7 1.4-19 6-28.5 1.9-11.9-5.1-14.3-21.3-25-23-5.1-0.8-8.8 2.5-16 7-10.3 6.4-18.4 7.6-28 15-3.9 3-6.6 5.6-11 8-14.7 8-30.1 6.5-36 6-12.5-1.1-28.5-1-43 1-13.2 1.8-22 4.7-36 2-11.5-2.2-20.3-6.1-27-11-5.2-3.8-10.9-11.9-20-16-10.9-4.9-20.9-3-29-2-17.8 2.2-31.1-0.3-49 1-17 1.2-30.5 3.4-38 14-6.6 9.3-7.8 24.3-1 30.9 3.9 3.8 9 3.5 14 4.1 5.8 0.7 17.6 5.3 29 15 10.9 9.2 10.5 17.6 22 26 5.9 4.3 11 6.1 11 10 0.1 6.1-12.5 11.1-20 13-6.5 1.6-26.9 5.3-40-7-8.8-8.2-7.1-17.2-17-27-6.2-6.2-12.2-8.2-15-8-10.4 0.8-16 20.4-25.3 28.9-9.1 8.3-17.4 10.1-18.7 18.1-1.5 9.5 9.6 16.9 7 24-2.4 6.5-14 6.8-23 9-20.4 5-31.8 22.8-53 51-12 16-29.1 34-42 55-11.2 18.1-16.4 34.2-26.9 52.8-19.3 34.2-40.6 59.9-36.1 64.2 4 3.8 22.8-13.7 31-8 6.2 4.3 2.8 19 0 32-0.6 2.6-5.7 31.1-6 33-2.5 13.6-4.1 31.1-4.8 47.9-0.4 6.5-1.4 18.7-5.2 30.1-4.4 13-11.1 19.2-16 32-7.3 19.2-0.9 29.4-7 49-1.9 6.1-4.5 12.9-4 22 0.6 12.9 6.8 22.4 10 28 6.8 11.8 8.6 29.6 13.6 48.6 4.9 18.4 11.2 32.9 15.4 51.4 6.9 29.9 7.2 52.6 19 81 5.3 12.7 11.8 25.3 19 37q6.7 10.9 14 21c8.1 11.3 14.4 18.4 17 29 4 15.9-2.2 28.5-5.5 48.9-3.8 23.4-0.8 38.1 5.5 45.1 5.3 5.8 14.3 10.8 20 8 5.1-2.5 5.1-10 7-20 1.9-9.7 5.8-15.4 8-25 2.9-12.6 3.3-22 4-35 0.8-13.9 1.8-32.2 3-36 2.6-8.4 6.2-15.2 3-22-4.6-9.8-25.3-12.2-32-16-16-9-20.4-25.3-33-49-6.6-12.5-13.7-21.4-20-34-10.1-20.3-16.6-38.7-20-55-3.6-17.4-1.7-30.4-4-48-2.6-19.8-5.9-32.8-2-53 1.1-5.7 5.5-17.8 9.3-27.9 3.5-9.5 7-17.6 11.7-26.1 5.2-9.4 11.2-17.3 16-22 10.2-10 21.6-16.2 33-19 5.9-1.5 11.1-2.1 16-2 6.9 0.1 22 4.4 37 13 10.6 6.1 20.6 14 24 18 4.3 5 9.4 14.7 14 25 5 11.2 8.1 19.1 16.6 24.1 7.5 4.4 13.4 3.1 22.4 4.9 4.6 0.9 15.9 6.4 26 13 7.4 4.8 14.6 10.9 17 14 8.7 11.2 10.7 23.3 11.5 33.9 1.3 18.6-1.4 34.3-0.5 51.1 0.6 12.4 4.4 24.1 6 34 3.7 22.4 3.7 36.6 7 37z"
       style="stroke-width:2;stroke-dasharray:none" />
  </g>
  <g
     id="Contours"
     style="display:inline;stroke-width:2;stroke-dasharray:none">
    <path
       id="Forme 19"
       class="s10"
       d="m 1546,715 c 1.9,12.3 2.3,22.5 3,35 0.7,12.9 2.6,24 3,37 0.3,8.9 0.2,15.3 2,24 1,4.8 4.1,20.1 5,23 1.2,3.6 4.4,12.8 0,19 -2.4,3.4 -5.3,3.3 -8,7 -2.8,3.8 -2.2,7.4 -3,12 -1,5.9 -4.6,9.7 -8,16 -4.1,7.7 -5.9,14.3 -10,22 -2,3.7 -4.2,7.3 -7,11 q -3,4 -6,7 c -4,4.1 -8.1,6.4 -12,10 -8,7.4 -12.1,15.6 -12.9,19.4 -1.6,8 2.2,19.2 2.6,22.3 0.4,4.5 0.2,10.1 -0.7,16.3 -1,6.9 -3.2,12.2 -5,19 -1.4,5.2 -2.5,14.9 -3,24 -0.5,8.1 -0.2,14.1 -2,22 -2.1,9.1 -5.8,16.2 -9,22 -3.2,5.8 -5.8,11.3 -9,17 -10.9,19.2 -16.1,41.7 -24,68 -5.1,16.8 -10.8,34.5 -16,47 -4.4,10.6 -10.8,23.6 -17,36 -12.8,25.6 -24.8,49.5 -38,67 -9.2,12.2 -18.5,22.9 -28,32 -8.9,8.6 -18.6,17.4 -26,23 -3.2,2.4 -11.3,9.2 -17,16 -4.9,5.8 -9.4,12.6 -13.6,20.9 -3.7,7.3 -5.6,13.8 -9.4,21.1 -2.6,5 -5.9,9.8 -9,15 -5,8.4 -8.5,16 -14,22 -7.5,8.2 -17.4,14.8 -29,19 -15,5.4 -27.8,4.9 -37,4 -21.9,-2.1 -42.2,-8.5 -60,-11 -15.9,-2.2 -28,-0.4 -44,-2 -22.3,-2.3 -41.7,-6.5 -57,-12 -20.3,-7.3 -48.2,-23.1 -76,-48 -14.1,-12.7 -22.9,-25 -36.9,-37.8 -19,-17.4 -37.2,-28 -57.1,-44.2 -14.6,-11.9 -28.6,-24.3 -39,-35 -17,-17.6 -25.5,-33.9 -42.6,-51.4 -18.4,-18.8 -33.5,-28.3 -47.4,-50.6 -9.2,-14.7 -14.8,-28.3 -18,-41 -6.1,-24.2 -0.1,-41.6 -2,-64 -1.1,-12.6 -2.5,-22.8 0,-37 1.8,-10.1 5.8,-18.1 8,-27 3.2,-12.8 2.9,-29.6 2,-49 -0.3,-6.4 -0.6,-12.7 -1,-19 q -0.5,-9 -1,-18 c 1.7,9.4 -0.2,19.3 -6,27 -3.8,5 -9,9.1 -15,11 -9.3,2.9 -16.5,-0.4 -27,-3 -3.4,-0.8 -12.9,-1.9 -20,-3 -9.2,-1.4 -21,-3.2 -33,-12 -3.4,-2.5 -8.5,-7.5 -13,-13 -5.7,-7 -10.4,-14.4 -14,-22 -4.3,-9 -5.3,-16.2 -10,-25 -4.2,-7.8 -11.3,-16 -14,-20 -4.4,-6.4 -10.5,-19.6 -15,-33 -3.6,-10.8 -6,-21.3 -8,-34 -2.8,-17.9 -2.6,-33.1 -5,-51 -1.1,-7.9 -2.3,-19.2 -1,-31 0.8,-7.1 3,-15.4 5,-24 1.3,-5.7 2.5,-11.7 4,-16 3.1,-8.9 10.9,-21.3 21,-34 8.5,-10.6 15.4,-17.8 24,-23 5.8,-3.5 11,-5.7 16,-7 7.9,-2.1 17.8,-2.8 30,0 4.8,1.1 13.8,4.7 22,9 6.3,3.3 12.1,6.9 16,10 7.2,5.7 13.2,12.7 15,16 4.6,8.5 3.7,14.5 8.1,23.1 2.7,5.3 5.9,7.8 8.9,12.9 1.8,3.1 4.2,7.6 9,9 2.5,0.7 4.8,0.2 6,0 3.1,-0.6 8,-1.4 12,-1 6.6,0.6 10,4.4 17,9 4.9,3.2 9.2,4.7 14,8 3.8,2.6 6.3,5.3 10,8 4,2.9 6.7,4.5 9,8 3.4,5.3 2.6,9.9 4,17 1,5.1 2.9,8.2 3.5,13.3 0.8,6.1 0,12.2 -0.5,15.7 -1,7 -0.5,12.6 -1,19.6 -0.6,7.8 -1.2,12.9 0,20.4 1.3,8.3 4.2,13.8 6,22 0.8,3.8 1.5,8.9 2,14 0.6,6.3 1.7,12.1 2,18 0.2,4.1 0.5,10.4 3,11 1.6,0.4 3.7,-1.6 6,-5 6,-8.8 6.7,-19.5 7,-23 0.5,-6 4.5,-19.1 9,-31 0.8,-2.2 3.5,-8.4 5,-13 3.2,-10 5.6,-27.2 6,-29 1.2,-5.9 4.1,-14.8 7,-23 3.4,-9.6 7.1,-18.3 11,-26 5.2,-10.2 11,-18.2 17,-28 6.5,-10.7 9,-20.2 16,-29 2.3,-2.9 8,-9.7 8,-19 0,-2.6 -0.9,-7.2 -3,-12 -1.3,-3.1 -2.6,-4.8 -3,-8 -0.7,-5.8 1.7,-11 4,-14 5.7,-7.4 15.5,-8.3 21,-9 5.7,-0.7 15.4,-3.4 24,-5 6.6,-1.2 13.7,-2.9 21,-5 11.6,-3.3 21.4,-7.2 33,-12 14.9,-6.2 33.3,-15.1 42,-18 8.2,-2.7 19,-5.9 29,-16 4.1,-4.1 11.6,-15.9 16,-30 3.4,-10.9 5.1,-22.1 5,-33 0,-7.8 -3,-23.5 -7,-38 -3.5,-12.6 -8,-24.8 -12,-32 -4.8,-8.5 -13.1,-18 -16,-22 -7.2,-10 -11.1,-18.7 -19,-25 -7.7,-6.2 -15.9,-8.2 -24,-16 -2.7,-2.6 -7.7,-9.8 -12,-16 -1,-1.4 -5.4,-9 -7,-16 -1.5,-6.4 -0.7,-10.2 1,-12 2.3,-2.4 6.2,-2.8 9,-2 4.2,1.1 6.4,4.8 8,7 3.4,4.9 8.1,8.7 12,11 6.3,3.7 10.7,2.8 17,6 3.5,1.8 10.4,9 16.5,17.5 3,4.2 5.1,7.8 8.5,11.5 5,5.4 10.3,8.8 15,12 8.2,5.6 15.5,12.4 18,16 2.8,3.9 4.8,8.1 10,11 7.5,4.3 15.6,2.6 20,2 6.3,-0.9 18.6,1.4 30,2 17,0.8 38.3,1.8 49,3 18.1,2.1 32.9,6.4 51,9 20.3,2.9 36,1.7 56,6 19.8,4.3 58.9,15.9 84,36 3.4,2.7 9.9,7.8 17,11 10.8,4.9 18.3,3.8 29,9 8.8,4.3 15.1,11.6 24,22 6.2,7.3 13.1,15.4 18,20 7.9,7.4 15.2,11.4 23,19 6.2,6.1 13.4,15.6 20,27 7.8,13.6 13.1,27.4 16,41 1.8,8.3 2.5,22 3,35 0.5,12.7 0.9,24.1 2.7,35.6 0.9,6.3 2.3,12 3.3,18.4 z"
       style="display:inline;stroke-width:2;stroke-dasharray:none" />
    <path
       id="Forme 20"
       class="s10"
       d="m 623,1123 c -4.2,18 -8.2,35.8 -12,54 -3.3,15.6 -6.2,30.9 -9.5,46.4 -4.5,21.8 -11.4,42.7 -13.5,60.6 -0.8,6.9 -2.9,21.7 -8.6,34.7 -5.2,11.7 -13.4,20.9 -18.4,29.3 -4.7,7.9 -8.8,18.6 -16,28 -6.8,8.8 -14.4,14.5 -21,22 -9.9,11.3 -17.8,24.8 -23,39 -5.6,15.4 -7.6,31.1 -7,50 0.9,26.1 7.1,43.5 13,69.1 4.2,18 6.3,37.5 12.3,57.3 4.4,14.5 11.1,31.5 18.7,48.6 9.9,22.3 21.2,43.6 31,58 7.9,11.5 26.1,32.4 29,36 13.6,16.9 23.2,30 38,41 19.5,14.5 41.8,21.5 54,25 33.9,9.9 59.3,23.3 93,34 30,9.5 52.4,15.2 80,17 19.9,1.3 43.2,-1.5 59,-2 17.5,-0.5 30.9,-0.7 47,-4 21.3,-4.4 37.2,-12.7 59,-22 17,-7.3 31.8,-12.1 48,-21 q 23.6,-12.9 46,-31 c 28.2,-22.9 48.2,-49 74,-83 12,-15.8 25.6,-33.4 34,-46 34.8,-52.3 48,-97.1 45,-122 -1.8,-14.9 -6.3,-28.8 -9,-45 -1.8,-10.7 -3.1,-21.3 -4,-32"
       style="display:inline;stroke-width:2;stroke-dasharray:none" />
  </g>
</svg>
